<svg width="725" height="969" viewBox="0 0 725 969" fill="none" xmlns="http://www.w3.org/2000/svg">
<rect x="0.345567" y="0.345567" width="149.976" height="88.4652" fill="#D9D9D9" stroke="#D9D9D9" stroke-width="0.691134"/>
<rect x="80.8628" y="89" width="36.6301" height="182.296" fill="#D9D9D9"/>
<rect x="80.8628" y="251" width="111.273" height="58.9998" fill="#D9D9D9"/>
<rect x="122" y="310" width="70" height="338" fill="#D9D9D9"/>
<rect x="2.34557" y="523.346" width="125.196" height="172.092" fill="#D9D9D9" stroke="#D9D9D9" stroke-width="0.691134"/>
<rect x="191.438" y="769.346" width="125.196" height="172.092" transform="rotate(90 191.438 769.346)" fill="#D9D9D9" stroke="#D9D9D9" stroke-width="0.691134"/>
<rect x="2.34557" y="326.346" width="124.309" height="172.309" fill="#D9D9D9" stroke="#D9D9D9" stroke-width="0.691134"/>
<rect x="156.888" y="529" width="95.3765" height="209.503" fill="#D9D9D9"/>
<rect x="363.537" y="738.503" width="203.885" height="128.551" fill="#D9D9D9"/>
<rect x="247.771" y="866.4" width="172.784" height="101.597" fill="#D9D9D9" stroke="#D9D9D9" stroke-width="0.691134"/>
<rect x="466.17" y="866.4" width="158.27" height="101.597" fill="#D9D9D9" stroke="#D9D9D9" stroke-width="0.691134"/>
<rect x="195" y="683" width="530" height="55.5032" fill="#D9D9D9"/>
<rect x="655.346" y="683.346" width="69.3087" height="54.812" fill="#66D575" stroke="#66D575" stroke-width="0.691134"/>
<text x="690" y="705" text-anchor="middle" fill="white" font-size="12" font-weight="bold">❎ EXIT</text>
<path d="M81.6543 183.346V238.654H2.3457V183.346H81.6543Z" fill="#D9D9D9" stroke="#D9D9D9" stroke-width="0.691134"/>
<rect x="2.34557" y="104.346" width="79.0553" height="63.3089" fill="#D9D9D9" stroke="#D9D9D9" stroke-width="0.691134"/>
<rect x="512" y="760" width="32.7913" height="80.625" rx="3" fill="#4A4A4A"/>
<text x="528.4" y="772" text-anchor="middle" fill="white" font-size="8" font-weight="bold">K</text>
<text x="528.4" y="782" text-anchor="middle" fill="white" font-size="8" font-weight="bold">I</text>
<text x="528.4" y="792" text-anchor="middle" fill="white" font-size="8" font-weight="bold">T</text>
<text x="528.4" y="802" text-anchor="middle" fill="white" font-size="8" font-weight="bold">C</text>
<text x="528.4" y="812" text-anchor="middle" fill="white" font-size="8" font-weight="bold">H</text>
<text x="528.4" y="822" text-anchor="middle" fill="white" font-size="8" font-weight="bold">E</text>
<text x="528.4" y="832" text-anchor="middle" fill="white" font-size="8" font-weight="bold">N</text>
<path d="M81.6543 254.346V309.654H2.3457V254.346H81.6543Z" fill="#D9D9D9" stroke="#D9D9D9" stroke-width="0.691134"/>
<path d="M246.654 413.346V468.654H167.346V413.346H246.654Z" fill="#D9D9D9" stroke="#D9D9D9" stroke-width="0.691134"/>
<path d="M246.654 344.346V399.654H167.346V344.346H246.654Z" fill="#D9D9D9" stroke="#D9D9D9" stroke-width="0.691134"/>
<path d="M246.654 330.654L191.346 330.654L191.346 251.346L246.654 251.346L246.654 330.654Z" fill="#D9D9D9" stroke="#D9D9D9" stroke-width="0.691134"/>
<rect x="157" y="730" width="35" height="60" rx="3" fill="#D9D9D9"/>
<rect x="230.839" y="701.873" width="199.047" height="36.6301" fill="#D9D9D9"/>
</svg>
